# xmcd CD database file
#
# Track frame offsets:
#	150
#	14513
#	32542
#	53919
#	70944
#	94764
#	115193
#	137210
#	167018
#	188884
#	204896
#	227484
#	235930
#	255542
#	270336
#	289149
#	307490
#
# Disc length: 4316 seconds
#
# Revision: 0
# Processed by: cddbd v1.5.2PL0 Copyright (c) Steve Scherf et al.
# Submitted via: CDex 1.70beta2
#
DISCID=ee10da11
DTITLE=Various Artist - 20 Jahre Hessen Jazz Idstein
DYEAR=2004
DGENRE=Jazz
TTITLE0=Working Blues Band, a fool for You
TTITLE1=Alexandra Fischer, The gardens of summer
TTITLE2=En Haufe Leit Jazz Musigg, Rum and Coca Cola
TTITLE3=Hootin' the Blues, Back Door Blues
TTITLE4=Judy Rafat, Night in Tunesia
TTITLE5=simply swing, Doctor Jazz
TTITLE6=Markus Schinkel Trio, Elise
TTITLE7=Keep Digging, All blues
TTITLE8=Surprise, el corazon
TTITLE9=The Latin Bop Quartett, Tete a Tete
TTITLE10=know what I mean?, buena vista
TTITLE11=Ballroom Orchestra, Let's dance
TTITLE12=Alexandra Lehmler Quartett, Babyschritte
TTITLE13=Patty Moon, Me and the moon
TTITLE14=Manfred Lindner Quintett, lazy Mississipi
TTITLE15=Salsaribe, Compadre Pedro Juan
TTITLE16=deep'n back, Life is a misery
EXTD=YEAR: 2004
EXTT0=
EXTT1=
EXTT2=
EXTT3=
EXTT4=
EXTT5=
EXTT6=
EXTT7=
EXTT8=
EXTT9=
EXTT10=
EXTT11=
EXTT12=
EXTT13=
EXTT14=
EXTT15=
EXTT16=
PLAYORDER=
